<svg xmlns="http://www.w3.org/2000/svg" width="630.666" height="580.943" viewBox="0 0 630.666 580.943">
  <g id="undraw_inbox_oppv" transform="translate(0 0.013)">
    <path id="Trazado_348" data-name="Trazado 348" d="M702.728,717.233c-8.619-7.283-13.855-18.789-12.482-29.989s9.877-21.5,20.908-23.876,23.605,4.206,26.956,14.981c1.844-20.775,3.969-42.42,15.014-60.111,10-16.019,27.323-27.482,46.1-29.532s38.539,5.694,50.247,20.512,14.575,36.359,6.375,53.371c-6.041,12.532-17.17,21.858-28.831,29.446a186.069,186.069,0,0,1-127.259,27.84" transform="translate(-250.923 -140.825)" fill="#f2f2f2"/>
    <path id="Trazado_349" data-name="Trazado 349" d="M830.9,594.83a307.02,307.02,0,0,0-90.212,121.985c-.861,2.109,2.563,3.026,3.414.941a303.607,303.607,0,0,1,89.3-120.422C835.175,595.894,832.657,593.4,830.9,594.83Z" transform="translate(-250.923 -140.825)" fill="#fff"/>
    <path id="Trazado_350" data-name="Trazado 350" d="M570.089,238.59H267.227a166.842,166.842,0,0,1,302.862,0Z" transform="translate(-250.923 -140.825)" fill="#e6e6e6"/>
    <path id="Trazado_351" data-name="Trazado 351" d="M581.164,374.816h14.147a5.751,5.751,0,0,1,5.751,5.751V491.4a12.824,12.824,0,0,1-12.824,12.824h0A12.824,12.824,0,0,1,575.413,491.4V380.567a5.751,5.751,0,0,1,5.751-5.751Z" transform="translate(-384.199 162.238) rotate(-26.057)" fill="#93c021"/>
    <path id="Trazado_352" data-name="Trazado 352" d="M602.044,411.143c.473-3.249-2.7-6.107-5.96-6.537s-6.464.864-9.492,2.133c-5.381,2.253-10.848,4.558-15.341,8.279s-7.949,9.134-7.914,14.967c.034,5.552,3.121,10.564,6.106,15.245l28,43.909c2.962,4.645,6.313,9.6,11.533,11.367a16.5,16.5,0,0,0,10.585-.446,25.559,25.559,0,0,0,16.606-25.331c-.958-12.576-10.941-22.222-18.415-32.381a93,93,0,0,1-15.56-33.688" transform="translate(-250.923 -140.825)" fill="#2f2e41"/>
    <path id="Trazado_353" data-name="Trazado 353" d="M523.158,648.053a6.2,6.2,0,0,1-4.086-1.528L508.4,637.238a6.229,6.229,0,0,1-.609-8.789L585.2,539.513a6.236,6.236,0,0,1,8.789-.608l10.671,9.287a6.238,6.238,0,0,1,.608,8.79l-77.411,88.935a6.218,6.218,0,0,1-4.7,2.137Z" transform="translate(-250.923 -140.825)" fill="#93c021"/>
    <path id="Trazado_354" data-name="Trazado 354" d="M512.094,570.492a6.239,6.239,0,0,1-5.713-3.725l-5.687-12.954a6.237,6.237,0,0,1,3.2-8.209l107.962-47.4a6.239,6.239,0,0,1,8.21,3.2l5.686,12.954a6.238,6.238,0,0,1-3.2,8.209l-107.962,47.4a6.2,6.2,0,0,1-2.5.525Z" transform="translate(-250.923 -140.825)" fill="#93c021"/>
    <path id="Trazado_355" data-name="Trazado 355" d="M502.226,615.955l14.129.7a5.751,5.751,0,0,0,6.029-5.458l2.821-58.058a5.751,5.751,0,0,0-5.458-6.029l-14.129-.7a5.751,5.751,0,0,0-6.029,5.458l-2.821,58.058A5.751,5.751,0,0,0,502.226,615.955Z" transform="translate(-250.923 -140.825)" fill="#93c021"/>
    <circle id="Elipse_277" data-name="Elipse 277" cx="48.883" cy="48.883" r="48.883" transform="translate(401.533 214.692)" fill="#93c021"/>
    <path id="Trazado_356" data-name="Trazado 356" d="M683.085,488.972l.085-.4a5.751,5.751,0,0,0-1.756-5.448l-18.663-16.978,2.19-2.516a5.751,5.751,0,0,0-.562-8.114l-11.567-10.069a5.751,5.751,0,0,0-8.114.562l-1.8,2.073-16.919-15.391a5.751,5.751,0,0,0-5.634-1.22h0a134.449,134.449,0,0,0-90.28,100.051l-.086.4a5.751,5.751,0,0,0,1.755,5.448L587.171,587.8a5.751,5.751,0,0,0,5.634,1.22h0a134.449,134.449,0,0,0,90.28-100.051Z" transform="translate(-250.923 -140.825)" fill="#2f2e41"/>
    <path id="Trazado_357" data-name="Trazado 357" d="M608.085,471.356h14.147a5.751,5.751,0,0,1,5.751,5.751V587.941a12.824,12.824,0,0,1-12.824,12.824h0a12.824,12.824,0,0,1-12.824-12.824V477.107a5.751,5.751,0,0,1,5.751-5.751Z" transform="translate(780.71 1096.898) rotate(-161.761)" fill="#93c021"/>
    <path id="Trazado_358" data-name="Trazado 358" d="M591.765,541.666c-2.657,1.929-2.485,6.2-.521,8.831s5.131,4.025,8.153,5.308c5.369,2.28,10.837,4.586,16.637,5.206s12.089-.684,16.241-4.781c3.952-3.9,5.386-9.61,6.654-15.014l11.9-50.7c1.258-5.364,2.471-11.225.089-16.193a16.5,16.5,0,0,0-7.708-7.269,25.56,25.56,0,0,0-29.73,5.791c-8.336,9.464-8.274,23.346-10.332,35.789a93,93,0,0,1-13.261,34.658" transform="translate(-250.923 -140.825)" fill="#2f2e41"/>
    <path id="Trazado_359" data-name="Trazado 359" d="M679.391,418.091a11.6,11.6,0,0,1-1.627-4.632,7.8,7.8,0,0,1,2.246-6.184A5.244,5.244,0,0,1,684.4,405.7c2.059.273,3.846,1.78,4.986,4.119l12.257-14.627,1.469,1.231-14.409,17.2-.528-1.663c-.613-1.927-1.991-4.085-4.027-4.355a3.368,3.368,0,0,0-2.8,1.048,5.891,5.891,0,0,0-1.678,4.607c.31,2.911,2.259,5.388,4.583,8.094L682.8,422.6a31.586,31.586,0,0,1-3.408-4.507Z" transform="translate(-250.923 -140.825)" fill="#2f2e41"/>
    <rect id="Rect치ngulo_846" data-name="Rect치ngulo 846" width="1.917" height="10.325" transform="matrix(0.74, -0.672, 0.672, 0.74, 434.833, 242.157)" fill="#2f2e41"/>
    <rect id="Rect치ngulo_847" data-name="Rect치ngulo 847" width="1.917" height="10.325" transform="matrix(0.74, -0.672, 0.672, 0.74, 456.744, 266.281)" fill="#2f2e41"/>
    <path id="Trazado_360" data-name="Trazado 360" d="M737.979,408.174c-13.454-7.205-28.473-15.118-35.894-29.164-3.34-6.321-5.137-13.869-3.964-21a23.855,23.855,0,0,1,11.056-16.527c11.717-7.292,27.332-6.4,40.161-2.982a84.128,84.128,0,0,1,34.979,19.443A86.17,86.17,0,0,1,807,391.387,75.565,75.565,0,0,1,811.438,411a110.119,110.119,0,0,1-1.491,27.229c-2.91,17.6-8.363,34.7-10.4,52.456-1.833,15.982-.941,33,7.044,47.34,6.2,11.127,16.66,19.38,28.439,23.955a57.6,57.6,0,0,0,37.224,1.782,50.811,50.811,0,0,0,8.612-3.527c1.642-.854.19-3.336-1.451-2.483-11.341,5.9-24.749,6.773-37.028,3.584-12.3-3.193-23.755-10.469-31-21.024-9.193-13.4-10.721-30.349-9.325-46.125,1.589-17.964,7.121-35.235,10.265-52.933a121.911,121.911,0,0,0,2.159-27.638A78.425,78.425,0,0,0,810.608,393a89.832,89.832,0,0,0-56.634-56.14c-12.951-4.17-28.237-5.71-41.108-.449-6.44,2.632-12.118,7.148-15.188,13.5-3.179,6.58-3.408,14.167-1.672,21.184,3.874,15.66,16.791,26.028,30.113,33.807,3.423,2,6.914,3.877,10.408,5.748,1.631.873,3.085-1.608,1.451-2.483Z" transform="translate(-250.923 -140.825)" fill="#2f2e41"/>
    <path id="Trazado_361" data-name="Trazado 361" d="M418.658,476.294c-92.489,0-167.735-75.246-167.735-167.735a167.735,167.735,0,1,1,335.469,0C586.393,401.048,511.147,476.294,418.658,476.294Zm0-333.553A166.421,166.421,0,0,0,268.1,238.992a164.363,164.363,0,0,0-15.257,69.567c0,91.432,74.385,165.818,165.818,165.818s165.818-74.385,165.818-165.818a164.36,164.36,0,0,0-15.256-69.566A166.421,166.421,0,0,0,418.658,142.741Z" transform="translate(-250.923 -140.825)" fill="#3f3d56"/>
    <path id="Trazado_362" data-name="Trazado 362" d="M480.273,220.593H356.205a5.8,5.8,0,1,1,0-11.593H480.273a5.8,5.8,0,0,1,0,11.593Z" transform="translate(-250.923 -140.825)" fill="#fff"/>
    <path id="Trazado_363" data-name="Trazado 363" d="M440.5,195.673H395.983a5.8,5.8,0,1,1,0-11.593h44.512a5.8,5.8,0,0,1,0,11.593Z" transform="translate(-250.923 -140.825)" fill="#fff"/>
    <path id="Trazado_364" data-name="Trazado 364" d="M356.33,296.475l-3.744-1.226c-13.362-4.505-22.141-7.382-25.268-14.43a10.969,10.969,0,0,1,5.324-14.571q.144-.067.29-.13a11.932,11.932,0,0,1,10.025.215,11.932,11.932,0,0,1,6.568-7.576,10.969,10.969,0,0,1,14.538,5.412q.066.145.128.291c3.127,7.048-.631,15.487-6.259,28.417Z" transform="translate(-250.923 -140.825)" fill="#ff6584"/>
    <path id="Trazado_365" data-name="Trazado 365" d="M471.6,406.755H363.927a12.6,12.6,0,0,1-12.585-12.585V325.651a12.6,12.6,0,0,1,12.585-12.585H471.6a12.6,12.6,0,0,1,12.585,12.585V394.17A12.6,12.6,0,0,1,471.6,406.755ZM363.927,315.863a9.8,9.8,0,0,0-9.788,9.788V394.17a9.8,9.8,0,0,0,9.788,9.788H471.6a9.8,9.8,0,0,0,9.788-9.788V325.651a9.8,9.8,0,0,0-9.788-9.788Z" transform="translate(-250.923 -140.825)" fill="#3f3d56"/>
    <path id="Trazado_366" data-name="Trazado 366" d="M417.186,359.292a14.04,14.04,0,0,1-8.048-2.517L355.11,319l1.6-2.291,54.028,37.774a11.311,11.311,0,0,0,12.743.1l55.619-37.6,1.566,2.317-55.619,37.6a14.039,14.039,0,0,1-7.863,2.393Z" transform="translate(-250.923 -140.825)" fill="#3f3d56"/>
    <circle id="Elipse_278" data-name="Elipse 278" cx="16.78" cy="16.78" r="16.78" transform="translate(149.361 201.607)" fill="#3f3d56"/>
  </g>
</svg>
