<svg xmlns="http://www.w3.org/2000/svg" xmlns:xlink="http://www.w3.org/1999/xlink" width="720" height="694" viewBox="0 0 720 694">
  <defs>
    <clipPath id="clip-path">
      <rect id="Image" width="720" height="694" transform="translate(600 -224)" fill="#fff"/>
    </clipPath>
  </defs>
  <g id="Enmascarar_grupo_6" data-name="Enmascarar grupo 6" transform="translate(-600 224)" clip-path="url(#clip-path)">
    <g id="undraw_working_out_6psf" transform="translate(600 -73.446)">
      <path id="Trazado_368" data-name="Trazado 368" d="M760,471.874c0-21.445-10.881-38.829-24.3-38.829-8.437,0-15.867,6.87-20.225,17.3a12.192,12.192,0,0,0-4.645-.932c-4.063,0-7.819,2.082-10.883,5.605-3.928-13-12.258-21.97-21.9-21.97-9.015,0-16.877,7.847-21.073,19.493a13.277,13.277,0,0,0-8.318-3.128c-10.3,0-18.652,13.341-18.652,29.8a43.432,43.432,0,0,0,2.939,16.046H755.1A55.24,55.24,0,0,0,760,471.874Z" transform="translate(-40 -103.554)" fill="#93c021"/>
      <path id="Trazado_369" data-name="Trazado 369" d="M672.867,247.655c-19.14-41.4-56.6-76.727-101.847-82.484-11.964-1.522-24.456-.912-35.557,3.8-14.571,6.19-25.31,18.683-36.164,30.209a436.072,436.072,0,0,1-76.641,64.565c-13.791,9.131-28.584,17.65-44.958,19.986-32.83,4.684-65.3-17.7-80.276-47.295-9.353-18.484-13.675-40.186-21.236-59.413-8.708-.017-19.082-.013-30.243.038-30.851.142-55.963.6-55.963.6s29.849-39.538,55.851-24.89c8.309,4.681,17.013,8.859,25.011,12.378-4.544-8.741-10.275-16.6-18.16-22.928-15.548-12.468-36.6-15.965-56.513-15.037-20.9.975-42,6.572-58.988,18.795-30.26,21.775-42.757,60.1-53.452,95.815l25.852,12.96c11.089-9.587,27.3-19.07,42.25-10.65,26,14.649,55.871,24.375,55.871,24.375s-24.908-.225-55.759-.083c-5.182.024-10.195.057-14.961.095L424,412.378c94.667,1.333,166.045-3.786,256,0,4.691.2,15.244-24.395,15.279-30.867C695.527,335.9,692.007,289.059,672.867,247.655Zm-91.921,12.41c-30.851.142-55.963.6-55.963.6s29.849-39.538,55.851-24.89S636.7,260.148,636.7,260.148s-24.908-.225-55.76-.083Z" transform="translate(-40 -103.554)" fill="#f2f2f2"/>
      <path id="Trazado_370" data-name="Trazado 370" d="M661.333,395.378c0-15.592-9.654-28.232-21.562-28.232-7.485,0-14.077,5-17.943,12.577a12.908,12.908,0,0,0-4.121-.678,14.039,14.039,0,0,0-9.655,4.076c-3.485-9.453-10.875-15.975-19.429-15.975-8,0-14.973,5.706-18.7,14.173a13.4,13.4,0,0,0-7.38-2.274c-9.139,0-16.548,9.7-16.548,21.667a26.618,26.618,0,0,0,2.607,11.667H656.985a34.133,34.133,0,0,0,4.349-17Z" transform="translate(-40 -103.554)" fill="#93c021" opacity="0.3"/>
      <path id="Trazado_371" data-name="Trazado 371" d="M720,392.825H54.667v-1.333H719.333Z" fill="#2f2e41"/>
      <path id="Trazado_372" data-name="Trazado 372" d="M665.333,310.158H0v-1.333H664.667Z" fill="#2f2e41"/>
      <path id="Trazado_373" data-name="Trazado 373" d="M322.42,290.978s4.19-30.729,11.174-22.348,0,20.952,0,20.952l-5.587,6.984-5.587-4.19Z" transform="translate(-40 -103.554)" fill="#ffb8b8"/>
      <path id="Trazado_374" data-name="Trazado 374" d="M305.659,300.755s13.968-15.364,16.761-12.571,11.174,4.19,9.777,9.777-30.729,23.745-30.729,23.745Z" transform="translate(-40 -103.554)" fill="#93c021"/>
      <path id="Trazado_375" data-name="Trazado 375" d="M305.659,300.755s13.968-15.364,16.761-12.571,11.174,4.19,9.777,9.777-30.729,23.745-30.729,23.745Z" transform="translate(-40 -103.554)" opacity="0.1"/>
      <path id="Trazado_376" data-name="Trazado 376" d="M226.043,299.359v11.174s-1.4,25.142,6.984,23.745,4.19-22.348,4.19-22.348l-1.4-12.571Z" transform="translate(-40 -103.554)" fill="#ffb8b8"/>
      <path id="Trazado_377" data-name="Trazado 377" d="M230.233,380.371s-12.571,19.555-16.761,20.952-26.539,13.968-29.332,26.539L164.584,453l9.777,12.571s44.7-47.49,57.268-51.681,25.142-25.142,25.142-25.142Z" transform="translate(-40 -103.554)" fill="#ffb8b8"/>
      <path id="Trazado_378" data-name="Trazado 378" d="M329.4,348.246s26.539,4.19,22.348,20.952-44.7,51.68-44.7,51.68l-1.4,8.381-15.365,2.793-6.984-6.984,1.4-4.19s16.761-15.364,18.158-20.952,16.761-27.935,23.745-29.332l-9.777-5.587Z" transform="translate(-40 -103.554)" fill="#ffb8b8"/>
      <path id="Trazado_379" data-name="Trazado 379" d="M168.775,453s5.587-8.381-2.794-6.984-13.968,2.794-13.968,8.381,6.984,44.7,15.364,41.9,1.4-15.364,1.4-15.364,4.19-11.174,6.984-12.571,2.794-8.381,0-8.381S167.378,455.8,168.775,453Z" transform="translate(-40 -103.554)" fill="#2f2e41"/>
      <path id="Trazado_380" data-name="Trazado 380" d="M287.5,422.275s0-6.984-5.587,0-8.381,12.571-2.794,16.761S304.262,453,304.262,453s20.952,4.19,18.158-5.587c0,0-13.968-6.984-13.968-12.571s0-15.364-4.19-12.571S287.5,426.465,287.5,422.275Z" transform="translate(-40 -103.554)" fill="#2f2e41"/>
      <path id="Trazado_381" data-name="Trazado 381" d="M260.962,317.517s-19.555,2.794-18.158,30.729c0,0-25.142,25.142-18.158,33.523s22.348,23.745,27.935,19.555,22.348-36.316,22.348-36.316,39.11,13.968,46.093,6.984,13.968-23.745,13.968-23.745l-34.919-18.158Z" transform="translate(-40 -103.554)" fill="#2f2e41"/>
      <circle id="Elipse_279" data-name="Elipse 279" cx="16.761" cy="16.761" r="16.761" transform="translate(258.675 100.825)" fill="#ffb8b8"/>
      <path id="Trazado_382" data-name="Trazado 382" d="M302.865,222.536S293.087,237.9,290.294,239.3s19.555,15.364,19.555,15.364,0-18.158,6.984-22.348Z" transform="translate(-40 -103.554)" fill="#ffb8b8"/>
      <path id="Trazado_383" data-name="Trazado 383" d="M301.468,237.9s-22.348-6.984-26.539,4.19-13.968,32.126-12.571,46.093,4.19,11.174,0,15.364-6.984,1.4-5.587,6.984,2.794,5.587,1.4,8.381,16.761,12.571,32.126,13.968l15.364,1.4s0-25.142,2.794-30.729,8.381-16.761,8.381-20.952V271.51a42.405,42.405,0,0,0-5.587-21.039h0S302.865,237.9,301.468,237.9Z" transform="translate(-40 -103.554)" fill="#93c021"/>
      <path id="Trazado_384" data-name="Trazado 384" d="M284.707,243.488s-51.681,4.19-57.268,18.158-8.381,41.9-2.794,41.9,12.571,2.794,13.968,0,6.984-30.729,8.381-30.729,43.3-4.19,43.3-4.19S308.452,246.281,284.707,243.488Z" transform="translate(-40 -103.554)" fill="#93c021"/>
      <path id="Trazado_385" data-name="Trazado 385" d="M316.109,216.984s4.448-7.73,10.008-1.016,14.6-5.624,13.216-8.257-6.292.118-14.695-2.629-24.59-8.343-27.3,9.912,3.745,16.341,3.745,16.341,2.959-16.175,5.634-11.529l2.675,4.646,2.32.571Z" transform="translate(-40 -103.554)" fill="#2f2e41"/>
      <circle id="Elipse_280" data-name="Elipse 280" cx="20.45" cy="20.45" r="20.45" transform="translate(413.756 29.76)" fill="#2f2e41"/>
      <path id="Trazado_386" data-name="Trazado 386" d="M467.669,168.9s1.058,19.048-1.058,19.048,13.228,8.995,13.228,8.995l9.524-5.291V185.3s-12.7-1.587-7.408-15.344S467.669,168.9,467.669,168.9Z" transform="translate(-40 -103.554)" fill="#9f616a"/>
      <path id="Trazado_387" data-name="Trazado 387" d="M383.223,274.345l-1.587,15.873,5.291,1.587,4.233-4.233,1.587-13.228Z" fill="#9f616a"/>
      <path id="Trazado_388" data-name="Trazado 388" d="M459.416,283.34l2.645,10.053,7.407,4.762,7.937-4.233-9-14.815Z" fill="#9f616a"/>
      <circle id="Elipse_281" data-name="Elipse 281" cx="15.344" cy="15.344" r="15.344" transform="translate(417.352 42.858)" fill="#9f616a"/>
      <path id="Trazado_389" data-name="Trazado 389" d="M463.436,219.165l-3.7-1.587s-6.349-3.7-6.878-11.111,5.291-16.932,5.291-16.932l8.466-2.646,9.947,8.1.106,13.069Z" transform="translate(-40 -103.554)" fill="#9f616a"/>
      <path id="Trazado_390" data-name="Trazado 390" d="M459.733,190.593l-2.116-1.058s-10.582-.529-11.64,12.17-4.762,33.863-4.762,33.863-8.466,14.815-7.937,30.689l-4.233,13.757s-5.82,20.106,1.058,20.106,6.349-21.694,6.349-21.694,12.7-30.689,13.757-35.98,10.053-30.159,7.408-37.038S459.733,190.593,459.733,190.593Z" transform="translate(-40 -103.554)" fill="#9f616a"/>
      <path id="Trazado_391" data-name="Trazado 391" d="M467.669,223.927v5.82s3.7,4.233,2.116,6.878a46.144,46.144,0,0,0-3.175,7.937l7.408,11.641,24.868,2.116,4.945-33.133Z" transform="translate(-40 -103.554)" fill="#9f616a"/>
      <path id="Trazado_392" data-name="Trazado 392" d="M490.95,186.889l4.233-2.116s8.995-6.349,16.4-7.408l22.752-15.344,14.815-35.451s-.529-19.048,3.7-16.932,3.7,18.519,3.7,18.519-7.937,32.805-14.815,41.8S510,193.767,510,193.767s-6.878,7.937-6.349,11.64S490.95,186.889,490.95,186.889Z" transform="translate(-40 -103.554)" fill="#9f616a"/>
      <path id="Trazado_393" data-name="Trazado 393" d="M471.373,244.562s-5.82-3.7-9.524,2.646-10.582,7.937-14.815,26.985S432.748,323.4,430.1,325.517s-13.757,24.339-7.408,55.557h10.582l9-44.975s29.1-35.98,31.218-50.795l9.524,55.557s.529,21.164,8.466,31.218l8.466,20.106,11.111-5.291-12.7-50.795s6.349-51.324,2.116-65.61l-.608-18.729S482.484,252.5,471.373,244.562Z" transform="translate(-40 -103.554)" fill="#2f2e41"/>
      <path id="Trazado_394" data-name="Trazado 394" d="M426.927,391.127h-6.349c-1.058,0-9.524,6.878-5.82,10.582s9.524,10.582,9.524,10.582,20.635,2.624,21.164-1.079-8.995-11.619-8.995-11.619l-2.646-8.466S428.515,385.306,426.927,391.127Z" transform="translate(-40 -103.554)" fill="#2f2e41"/>
      <path id="Trazado_395" data-name="Trazado 395" d="M511.056,396.417s-8.995-.529-10.582-1.058-4.762,13.757,0,14.815,24.34,2.646,24.34,2.646,15.344-.529,14.286-4.762-21.694-12.7-21.694-12.7S514.76,390.068,511.056,396.417Z" transform="translate(-40 -103.554)" fill="#2f2e41"/>
      <path id="Trazado_396" data-name="Trazado 396" d="M469.257,186.36l-2.646-1.587-3.175,2.646s9.524,6.349,7.408,12.17-11.111,17.99-11.111,17.99,7.937,8.995,7.937,12.17c0,0,20.635-7.408,35.98,0,0,0,0-10.582,2.116-12.7s3.175-9.524-2.116-15.873A116,116,0,0,1,493.6,186.36l-5.291-3.175-2.725.864s5.371,6.014.08,6.543S471.9,189.535,469.257,186.36Z" transform="translate(-40 -103.554)" fill="#93c021"/>
      <path id="Trazado_397" data-name="Trazado 397" d="M489.152,118.9a11.178,11.178,0,0,1-6.933,3.632c-4.622.66-.99,7.924-.99,7.924a4.174,4.174,0,0,1,1.321-4.952C485.19,123.19,489.152,121.869,489.152,118.9Z" transform="translate(-40 -103.554)" fill="#2f2e41"/>
      <circle id="Elipse_282" data-name="Elipse 282" cx="5.699" cy="5.699" r="5.699" transform="translate(434.541 22.72)" fill="#2f2e41"/>
      <path id="Trazado_398" data-name="Trazado 398" d="M486.893,137.584c-4.4-2.3-11.977-4.108-16-3.979l1.018-3.892c3.563,2.42,11.1,4.263,16,3.979Z" transform="translate(-40 -103.554)" fill="#93c021"/>
      <path id="Trazado_399" data-name="Trazado 399" d="M477.8,137.927s-6.938,8.92-20.814,10.9-2.973,23.787-2.973,23.787-3.965-7.929,3.965-14.867S477.8,146.847,477.8,137.927Z" transform="translate(-40 -103.554)" fill="#2f2e41"/>
      <path id="Trazado_400" data-name="Trazado 400" d="M478.327,137.4s3.965,13.876,9.911,15.858,2.973,22.8-6.938,24.778c0,0,8.425-11.4,3.469-20.318S476.84,141.857,478.327,137.4Z" transform="translate(-40 -103.554)" fill="#2f2e41"/>
      <rect id="Rect치ngulo_852" data-name="Rect치ngulo 852" width="36.509" height="4.233" transform="translate(495.131 10.582)" fill="#2f2e41"/>
      <ellipse id="Elipse_283" data-name="Elipse 283" cx="3.175" cy="12.699" rx="3.175" ry="12.699" transform="translate(528.465 0)" fill="#2f2e41"/>
      <ellipse id="Elipse_284" data-name="Elipse 284" cx="3.175" cy="12.699" rx="3.175" ry="12.699" transform="translate(491.956 0)" fill="#2f2e41"/>
      <rect id="Rect치ngulo_853" data-name="Rect치ngulo 853" width="36.509" height="4.233" transform="translate(513.65 295.255)" fill="#2f2e41"/>
      <ellipse id="Elipse_285" data-name="Elipse 285" cx="3.175" cy="12.699" rx="3.175" ry="12.699" transform="translate(546.984 284.673)" fill="#2f2e41"/>
      <ellipse id="Elipse_286" data-name="Elipse 286" cx="3.175" cy="12.699" rx="3.175" ry="12.699" transform="translate(510.475 284.673)" fill="#2f2e41"/>
      <path id="Trazado_401" data-name="Trazado 401" d="M169.333,395.378c0-15.592-9.654-28.232-21.562-28.232-7.485,0-14.077,5-17.943,12.577a12.908,12.908,0,0,0-4.121-.678,14.039,14.039,0,0,0-9.655,4.076c-3.485-9.453-10.875-15.975-19.429-15.975-8,0-14.973,5.706-18.7,14.173a13.4,13.4,0,0,0-7.38-2.274c-9.139,0-16.548,9.7-16.548,21.667a26.618,26.618,0,0,0,2.607,11.667H164.985a34.134,34.134,0,0,0,4.349-17Z" transform="translate(-40 -103.554)" fill="#93c021" opacity="0.3"/>
    </g>
  </g>
</svg>
