<svg xmlns="http://www.w3.org/2000/svg" xmlns:xlink="http://www.w3.org/1999/xlink" width="160" height="160" viewBox="0 0 160 160">
  <defs>
    <clipPath id="clip-path">
      <circle id="Elipse_48" data-name="Elipse 48" cx="80" cy="80" r="80" transform="translate(240 240)" stroke="#000" stroke-width="1"/>
    </clipPath>
  </defs>
  <g id="Enmascarar_grupo_3" data-name="Enmascarar grupo 3" transform="translate(-240 -240)" clip-path="url(#clip-path)">
    <g id="undraw_services_5tv9" transform="translate(240 249.502)">
      <path id="Trazado_258" data-name="Trazado 258" d="M102.516,147.091a12.132,12.132,0,0,1-1.281-4.8c-.293-2.933-.1-7.876,2.459-14.772a29.79,29.79,0,0,0-1.18-23.709l.295-.171a26.165,26.165,0,0,1,2.469,6.993,30.51,30.51,0,0,1-1.264,17.006c-4.849,13.041-1.244,19.215-1.207,19.276Z" transform="translate(-22.233 -6.177)" fill="#3f3d56" stroke="#000" stroke-width="0.17"/>
      <circle id="Elipse_262" data-name="Elipse 262" cx="2.215" cy="2.215" r="2.215" transform="translate(76.169 92.435)" fill="#93c021" stroke="#000" stroke-width="0.17"/>
      <circle id="Elipse_263" data-name="Elipse 263" cx="2.215" cy="2.215" r="2.215" transform="translate(83.155 100.614)" fill="#3f3d56" stroke="#000" stroke-width="0.17"/>
      <circle id="Elipse_264" data-name="Elipse 264" cx="2.215" cy="2.215" r="2.215" transform="translate(78.384 106.067)" fill="#93c021" stroke="#000" stroke-width="0.17"/>
      <circle id="Elipse_265" data-name="Elipse 265" cx="2.215" cy="2.215" r="2.215" transform="translate(84.177 110.667)" fill="#93c021" stroke="#000" stroke-width="0.17"/>
      <circle id="Elipse_266" data-name="Elipse 266" cx="2.215" cy="2.215" r="2.215" transform="translate(76.68 117.823)" fill="#3f3d56" stroke="#000" stroke-width="0.17"/>
      <path id="Trazado_259" data-name="Trazado 259" d="M103.854,147.173s-2.215-5.452,4.43-9.542Z" transform="translate(-22.233 -6.177)" fill="#3f3d56" stroke="#000" stroke-width="0.17"/>
      <path id="Trazado_260" data-name="Trazado 260" d="M101.13,147.074s-1.008-5.8-8.811-5.749Z" transform="translate(-22.233 -6.177)" fill="#3f3d56" stroke="#000" stroke-width="0.17"/>
      <rect id="Rectángulo_772" data-name="Rectángulo 772" width="0.341" height="42.754" transform="translate(27.779 77.959)" fill="#3f3d56" stroke="#000" stroke-width="0.17"/>
      <rect id="Rectángulo_773" data-name="Rectángulo 773" width="0.341" height="55.911" transform="translate(38.173 71.381)" fill="#3f3d56" stroke="#000" stroke-width="0.17"/>
      <rect id="Rectángulo_774" data-name="Rectángulo 774" width="0.341" height="59.636" transform="translate(48.566 69.518)" fill="#3f3d56" stroke="#000" stroke-width="0.17"/>
      <rect id="Rectángulo_775" data-name="Rectángulo 775" width="0.341" height="55.911" transform="translate(58.96 71.381)" fill="#3f3d56" stroke="#000" stroke-width="0.17"/>
      <rect id="Rectángulo_776" data-name="Rectángulo 776" width="0.341" height="42.754" transform="translate(69.354 77.959)" fill="#3f3d56" stroke="#000" stroke-width="0.17"/>
      <rect id="Rectángulo_777" data-name="Rectángulo 777" width="52.514" height="0.341" transform="translate(22.48 85.024)" fill="#3f3d56" stroke="#000" stroke-width="0.17"/>
      <rect id="Rectángulo_778" data-name="Rectángulo 778" width="59.636" height="0.341" transform="translate(18.919 99.166)" fill="#3f3d56" stroke="#000" stroke-width="0.17"/>
      <rect id="Rectángulo_779" data-name="Rectángulo 779" width="52.514" height="0.341" transform="translate(22.48 113.308)" fill="#3f3d56" stroke="#000" stroke-width="0.17"/>
      <circle id="Elipse_267" data-name="Elipse 267" cx="29.818" cy="29.818" r="29.818" transform="translate(100.364 25.729)" fill="#93c021" stroke="#000" stroke-width="0.17"/>
      <rect id="Rectángulo_780" data-name="Rectángulo 780" width="0.341" height="42.754" transform="translate(79.406 49.675)" fill="#3f3d56" stroke="#000" stroke-width="0.17"/>
      <rect id="Rectángulo_781" data-name="Rectángulo 781" width="0.341" height="55.911" transform="translate(89.8 43.096)" fill="#3f3d56" stroke="#000" stroke-width="0.17"/>
      <rect id="Rectángulo_782" data-name="Rectángulo 782" width="0.341" height="59.636" transform="translate(100.194 41.234)" fill="#3f3d56" stroke="#000" stroke-width="0.17"/>
      <rect id="Rectángulo_783" data-name="Rectángulo 783" width="0.341" height="55.911" transform="translate(110.587 43.096)" fill="#3f3d56" stroke="#000" stroke-width="0.17"/>
      <rect id="Rectángulo_784" data-name="Rectángulo 784" width="0.341" height="42.754" transform="translate(120.981 49.675)" fill="#3f3d56" stroke="#000" stroke-width="0.17"/>
      <rect id="Rectángulo_785" data-name="Rectángulo 785" width="52.514" height="0.341" transform="translate(74.107 56.739)" fill="#3f3d56" stroke="#000" stroke-width="0.17"/>
      <rect id="Rectángulo_786" data-name="Rectángulo 786" width="59.636" height="0.341" transform="translate(70.546 70.881)" fill="#3f3d56" stroke="#000" stroke-width="0.17"/>
      <rect id="Rectángulo_787" data-name="Rectángulo 787" width="52.514" height="0.341" transform="translate(74.107 85.024)" fill="#3f3d56" stroke="#000" stroke-width="0.17"/>
      <path id="Trazado_261" data-name="Trazado 261" d="M145.645,11.813h0c-8.2,0-14.852,7.379-14.852,16.482V39.86h3.557l2.059-4.285-.515,4.285h22.863l1.872-3.9-.468,3.9h2.574V30.779C162.735,20.3,155.083,11.813,145.645,11.813Z" transform="translate(-22.233 -6.177)" fill="#2f2e41" stroke="#000" stroke-width="0.17"/>
      <path id="Trazado_262" data-name="Trazado 262" d="M138.476,32.6s4.636,10.816-1.545,12.98l6.181,20.4,10.507-.618,2.781-6.8-.618-10.2-.927-6.8s-6.49,1.545-5.872-9.889Z" transform="translate(-22.233 -6.177)" fill="#ffb8b8" stroke="#000" stroke-width="0.17"/>
      <path id="Trazado_263" data-name="Trazado 263" d="M136,45.27s-10.2-.927-9.271,6.49,1.854,8.962,1.854,8.962l.927,11.125-5.563,3.4H118.7s-16.07,3.708-8.035,7.726,10.816-3.09,10.816-3.09,14.834,0,15.761-2.472S136,45.27,136,45.27Z" transform="translate(-22.233 -6.177)" fill="#ffb8b8" stroke="#000" stroke-width="0.17"/>
      <path id="Trazado_264" data-name="Trazado 264" d="M155.782,42.179s9.58-3.4,10.2,4.017.618,8.035.618,8.035l1.854,10.507s3.708,9.271,3.708,12.052,2.781,11.434,2.781,11.434,3.708,12.052-.309,11.743S170,86.99,170,86.99L161.653,70.3l-2.472-10.2Z" transform="translate(-22.233 -6.177)" fill="#ffb8b8" stroke="#000" stroke-width="0.17"/>
      <path id="Trazado_265" data-name="Trazado 265" d="M137.549,44.034h-2.472l-.309,12.98s-4.017,5.563.927,10.507l1.236,8.035,22.56-.927,1.545-8.344s3.09-6.8-1.236-12.98l-4.017-12.671h-2.163s5.01,18.474-5.563,18.851C139.4,59.794,137.549,44.034,137.549,44.034Z" transform="translate(-22.233 -6.177)" fill="#fff" stroke="#000" stroke-width="0.17"/>
      <path id="Trazado_266" data-name="Trazado 266" d="M173.436,120.776a77.6,77.6,0,0,1-24.941,18.652c0-15.464.179-28.025.179-28.025s-1.312,13.273-2.978,29.274a77.089,77.089,0,0,1-30.084,6.069c-.184,0-.368,0-.552,0,8.5-30.551,20.9-65.565,21.247-66.531a.215.215,0,0,0,.007-.02l.748-2.494.319-1.062.334-1.113.453-1.513,20.087-.617.562,1.263,1.91,4.3a1.658,1.658,0,0,1,.469.22C164.811,81.548,169.369,99.663,173.436,120.776Z" transform="translate(-22.233 -6.177)" fill="#2f2e41" stroke="#000" stroke-width="0.17"/>
      <path id="Trazado_267" data-name="Trazado 267" d="M160.417,70.92,136,71.847s-1.114,8.344,0,8.344c.309,0,25.65,2.163,25.341-1.545S160.417,70.92,160.417,70.92Z" transform="translate(-22.233 -6.177)" fill="#3f3d56" stroke="#000" stroke-width="0.17"/>
      <circle id="Elipse_268" data-name="Elipse 268" cx="8.683" cy="8.683" r="8.683" transform="translate(112.336 12.596)" fill="#ffb8b8" stroke="#000" stroke-width="0.17"/>
      <path id="Trazado_268" data-name="Trazado 268" d="M149.867,16.353a7.789,7.789,0,0,0-6.146-3.136h-.292c-5.622,0-10.179,5.087-10.179,11.363h1.884l.3-2.316.446,2.316h11.172l.936-1.959-.234,1.959h2.2q1.538,7.64-4.421,15.281h3.744l1.872-3.918-.468,3.918h7.137l1.4-9.012C159.225,24.1,155.3,18.376,149.867,16.353Z" transform="translate(-22.233 -6.177)" fill="#2f2e41" stroke="#000" stroke-width="0.17"/>
      <circle id="Elipse_269" data-name="Elipse 269" cx="5.563" cy="5.563" r="5.563" transform="translate(124.123 0)" fill="#2f2e41" stroke="#000" stroke-width="0.17"/>
      <circle id="Elipse_270" data-name="Elipse 270" cx="2.797" cy="2.797" r="2.797" transform="translate(86.251 68.235)" fill="#93c021" stroke="#000" stroke-width="0.17"/>
      <path id="Trazado_269" data-name="Trazado 269" d="M89.048,71.031H28.08V46.421H78.794Z" fill="#efefef" stroke="#000" stroke-width="0.17"/>
      <path id="Trazado_270" data-name="Trazado 270" d="M111.559,77.394h-68.7V47.19H99.1l.048.115Zm-68.331-.373H111L98.851,47.563H43.228Z" transform="translate(-22.233 -6.177)" fill="#3f3d56" stroke="#000" stroke-width="0.17"/>
      <rect id="Rectángulo_788" data-name="Rectángulo 788" width="30.391" height="2.797" transform="translate(38.149 50.336)" fill="#3f3d56" stroke="#000" stroke-width="0.17"/>
      <rect id="Rectángulo_789" data-name="Rectángulo 789" width="30.391" height="2.797" transform="translate(38.149 56.116)" fill="#3f3d56" stroke="#000" stroke-width="0.17"/>
      <rect id="Rectángulo_790" data-name="Rectángulo 790" width="30.391" height="2.797" transform="translate(38.149 61.895)" fill="#3f3d56" stroke="#000" stroke-width="0.17"/>
      <path id="Trazado_271" data-name="Trazado 271" d="M24.277,106.083a2.045,2.045,0,1,1,2.045-2.045,2.045,2.045,0,0,1-2.045,2.045Zm0-3.749a1.7,1.7,0,1,0,1.7,1.7A1.7,1.7,0,0,0,24.277,102.334Z" transform="translate(-22.233 -6.177)" fill="#2f2e41" stroke="#000" stroke-width="0.17"/>
      <path id="Trazado_272" data-name="Trazado 272" d="M96.152,29.117H92.788V25.753h3.364Zm-3.1-.259h2.846V26.012H93.047Z" transform="translate(-22.233 -6.177)" fill="#3f3d56" stroke="#000" stroke-width="0.17"/>
      <path id="Trazado_273" data-name="Trazado 273" d="M32.536,29.812l-2.294-2.46,2.46-2.294L35,27.518Zm-1.929-2.447,1.941,2.081,2.081-1.941-1.941-2.081Z" transform="translate(-22.233 -6.177)" fill="#2f2e41" stroke="#000" stroke-width="0.17"/>
    </g>
  </g>
</svg>
