<svg xmlns="http://www.w3.org/2000/svg" xmlns:xlink="http://www.w3.org/1999/xlink" width="160" height="160" viewBox="0 0 160 160">
  <defs>
    <clipPath id="clip-path">
      <circle id="Elipse_48" data-name="Elipse 48" cx="80" cy="80" r="80" transform="translate(240 240)" fill="#bce0fd" stroke="#000" stroke-width="1"/>
    </clipPath>
  </defs>
  <g id="Enmascarar_grupo_4" data-name="Enmascarar grupo 4" transform="translate(-240 -240)" clip-path="url(#clip-path)">
    <g id="undraw_mobile_web_2g8b" transform="translate(244.422 240)">
      <path id="Trazado_274" data-name="Trazado 274" d="M74.009,141.977l-1.8-7.1a92.212,92.212,0,0,0-9.783-3.509l-.227,3.3-.922-3.636c-4.123-1.177-6.928-1.7-6.928-1.7s3.789,14.406,11.736,25.42l9.259,1.626-7.193,1.038a37.3,37.3,0,0,0,3.218,3.41c11.56,10.729,24.435,15.651,28.758,10.994s-1.545-17.13-13.1-27.859a49.116,49.116,0,0,0-12.592-8.1Z" transform="translate(-53.248 -16.619)" fill="#93c021" stroke="#000" stroke-width="0.215"/>
      <path id="Trazado_275" data-name="Trazado 275" d="M91.132,134.264l2.129-7.01a92.21,92.21,0,0,0-6.561-8.061L84.8,121.9l1.09-3.589c-2.921-3.139-5.054-5.032-5.054-5.032s-4.2,14.291-3.093,27.827l7.086,6.178-6.694-2.83a37.306,37.306,0,0,0,.992,4.582c4.35,15.16,12.828,26.029,18.935,24.276s7.532-15.463,3.182-30.623a49.115,49.115,0,0,0-6.594-13.439Z" transform="translate(-53.248 -16.619)" fill="#93c021" stroke="#000" stroke-width="0.215"/>
      <ellipse id="Elipse_271" data-name="Elipse 271" cx="75.578" cy="3.865" rx="75.578" ry="3.865" transform="translate(0 152.271)" fill="#3f3d56" stroke="#000" stroke-width="0.215"/>
      <path id="Trazado_276" data-name="Trazado 276" d="M172.981,53.752h-.859V30.232A13.613,13.613,0,0,0,158.51,16.619H108.679A13.613,13.613,0,0,0,95.066,30.232V159.267a13.613,13.613,0,0,0,13.613,13.613H158.51a13.613,13.613,0,0,0,13.613-13.613V70.495h.859Z" transform="translate(-53.248 -16.619)" fill="#3f3d56" stroke="#000" stroke-width="0.215"/>
      <path id="Trazado_277" data-name="Trazado 277" d="M169.225,30.327V159.172a10.167,10.167,0,0,1-10.166,10.166h-50.07a10.167,10.167,0,0,1-10.166-10.166V30.327a10.167,10.167,0,0,1,10.166-10.166h6.074a4.832,4.832,0,0,0,4.472,6.654h28.548a4.832,4.832,0,0,0,4.472-6.654h6.5a10.167,10.167,0,0,1,10.166,10.166Z" transform="translate(-53.248 -16.619)" fill="#fff" stroke="#000" stroke-width="0.215"/>
      <path id="Trazado_278" data-name="Trazado 278" d="M169.225,131.489v27.682a10.167,10.167,0,0,1-10.166,10.166h-50.07a10.167,10.167,0,0,1-10.166-10.166V134.188a47.874,47.874,0,0,1,70.4-2.7Z" transform="translate(-53.248 -16.619)" fill="#e6e6e6" stroke="#000" stroke-width="0.215"/>
      <path id="Trazado_279" data-name="Trazado 279" d="M69.174,109.752H67.15l.674-39.529H68.5Z" fill="#e6e6e6" stroke="#000" stroke-width="0.215"/>
      <path id="Trazado_280" data-name="Trazado 280" d="M124.108,61.956l3.267-5.048a75.68,75.68,0,0,0-3.351-7.845l-2.112,1.706,1.672-2.585c-1.594-3.138-2.848-5.114-2.848-5.114S114.184,53.394,112,64.324l4.192,6.478-4.641-3.748a30.619,30.619,0,0,0-.255,3.84c0,12.945,4.228,23.439,9.443,23.439s9.443-10.494,9.443-23.439a40.313,40.313,0,0,0-2.16-12.1Z" transform="translate(-53.248 -16.619)" fill="#e6e6e6" stroke="#000" stroke-width="0.215"/>
      <path id="Trazado_281" data-name="Trazado 281" d="M57.43,112.544h-.981l.327-19.171H57.1Z" fill="#e6e6e6" stroke="#000" stroke-width="0.215"/>
      <path id="Trazado_282" data-name="Trazado 282" d="M111.5,97.922l1.584-2.448a36.7,36.7,0,0,0-1.625-3.8l-1.024.827.811-1.254c-.773-1.522-1.381-2.48-1.381-2.48a35.177,35.177,0,0,0-4.239,10.308l2.033,3.142-2.251-1.818a14.848,14.848,0,0,0-.123,1.862c0,6.278,2.05,11.368,4.58,11.368s4.58-5.089,4.58-11.368a19.551,19.551,0,0,0-1.048-5.866Z" transform="translate(-53.248 -16.619)" fill="#e6e6e6" stroke="#000" stroke-width="0.215"/>
      <path id="Trazado_283" data-name="Trazado 283" d="M82.981,112.544H82l.327-19.171h.327Z" fill="#e6e6e6" stroke="#000" stroke-width="0.215"/>
      <path id="Trazado_284" data-name="Trazado 284" d="M137.046,97.922l1.584-2.448a36.707,36.707,0,0,0-1.625-3.8l-1.024.827.811-1.254c-.773-1.522-1.381-2.48-1.381-2.48a35.177,35.177,0,0,0-4.239,10.308l2.033,3.142-2.251-1.818a14.851,14.851,0,0,0-.123,1.862c0,6.278,2.05,11.368,4.58,11.368s4.58-5.089,4.58-11.368a19.551,19.551,0,0,0-1.048-5.866Z" transform="translate(-53.248 -16.619)" fill="#e6e6e6" stroke="#000" stroke-width="0.215"/>
      <circle id="Elipse_272" data-name="Elipse 272" cx="9.018" cy="9.018" r="9.018" transform="translate(47.665 30.96)" fill="#e6e6e6" stroke="#000" stroke-width="0.215"/>
      <path id="Trazado_285" data-name="Trazado 285" d="M89.292,50.279l16.46.409,2.216-19.627H89.292Z" fill="#2f2e41" stroke="#000" stroke-width="0.215"/>
      <path id="Trazado_286" data-name="Trazado 286" d="M138.438,51.522,133.9,34.114s1.254-8.357,4.289-8.219-.788,8.169-.788,8.169L142.539,49.1Z" transform="translate(-53.248 -16.619)" fill="#ffb8b8" stroke="#000" stroke-width="0.215"/>
      <path id="Trazado_287" data-name="Trazado 287" d="M147.339,95.14l.711,7.11s-22.4,15.287-22.4,21.686-.711,26.663-.711,26.663l8.177.355.711-9.6s1.777-10.665.711-14.576l11.732-8.887s-3.555,4.266-2.844,11.732-1.066,22.041-1.066,22.041l8.532.711s1.066-7.821,1.422-8.532,2.133-13.509.355-17.064l14.576-17.064s4.977-6.4,0-12.8L164.4,95.5Z" transform="translate(-53.248 -16.619)" fill="#2f2e41" stroke="#000" stroke-width="0.215"/>
      <path id="Trazado_288" data-name="Trazado 288" d="M125.3,149.176l-.711,4.622-4.622,11.021s-7.821,3.911-2.133,4.622,7.821-.711,8.888-2.488,3.2-4.622,3.2-4.622l-.355,7.465h1.778l2.913-10.2a6.431,6.431,0,0,0-1.094-5.747l-.042-.053a5.21,5.21,0,0,1-.711-4.266Z" transform="translate(-53.248 -16.619)" fill="#2f2e41" stroke="#000" stroke-width="0.215"/>
      <path id="Trazado_289" data-name="Trazado 289" d="M143.073,149.176l-.711,4.622-4.622,11.021s-7.821,3.911-2.133,4.622,7.821-.711,8.888-2.488,3.2-4.622,3.2-4.622l-.355,7.465h1.777l2.913-10.2a6.431,6.431,0,0,0-1.094-5.747l-.042-.053a5.21,5.21,0,0,1-.711-4.266Z" transform="translate(-53.248 -16.619)" fill="#2f2e41" stroke="#000" stroke-width="0.215"/>
      <circle id="Elipse_273" data-name="Elipse 273" cx="7.11" cy="7.11" r="7.11" transform="translate(91.247 27.684)" fill="#ffb8b8" stroke="#000" stroke-width="0.215"/>
      <path id="Trazado_290" data-name="Trazado 290" d="M151.249,57.456l3.2,7.466,6.4-4.977s-3.911-5.332-3.911-6.044Z" transform="translate(-53.248 -16.619)" fill="#ffb8b8" stroke="#000" stroke-width="0.215"/>
      <path id="Trazado_291" data-name="Trazado 291" d="M151.96,61.722l1.517.932s4.9-2.6,6.136-4.431c0,0,4.435-1.478,6.212,2.077s-1.066,28.085-1.066,28.085,1.777,2.489,1.422,3.555,1.066,2.844,1.066,2.844v2.133s-20.264.356-20.264-1.422V89.807L144.85,89.1s-2.133,4.622-2.844,4.266-4.266-3.2-4.266-3.2,5.688-18.842,8.887-22.041l3.911-6.755Z" transform="translate(-53.248 -16.619)" fill="#93c021" stroke="#000" stroke-width="0.215"/>
      <path id="Trazado_292" data-name="Trazado 292" d="M151.249,62.078a3.925,3.925,0,0,0-1.777-1.778c-1.066-.356-6.4-7.821-6.4-7.821l.711-3.91-7.11-1.067a18.986,18.986,0,0,0,1.777,6.4c1.422,2.489,9.243,15.287,9.243,15.287l3.911-7.11Z" transform="translate(-53.248 -16.619)" fill="#93c021" stroke="#000" stroke-width="0.215"/>
      <path id="Trazado_293" data-name="Trazado 293" d="M156.759,90.34l-4.266,12.8s-8.887,9.954-3.911,9.954,7.466-8.887,7.466-8.887l6.044-12.8Z" transform="translate(-53.248 -16.619)" fill="#ffb8b8" stroke="#000" stroke-width="0.215"/>
      <path id="Trazado_294" data-name="Trazado 294" d="M143.083,51.517c5.695-2.282,11.309-2.769,16.776,0v-4.6a3,3,0,0,0-3-3H145.451a2.367,2.367,0,0,0-2.367,2.367Z" transform="translate(-53.248 -16.619)" fill="#2f2e41" stroke="#000" stroke-width="0.215"/>
      <path id="Trazado_295" data-name="Trazado 295" d="M161.2,61.367s3.244-2.747,5,.4.689,16.66.333,18.438-2.844,12.8-2.844,12.8l-8.532-1.778s-.711-4.977,1.422-4.622Z" transform="translate(-53.248 -16.619)" fill="#93c021" stroke="#000" stroke-width="0.215"/>
      <path id="Trazado_296" data-name="Trazado 296" d="M164.742,58.312a5.444,5.444,0,0,1-2.405-4.69c-.053-1.83.391-3.642.425-5.472a4.229,4.229,0,0,0-.095-1.116,4.292,4.292,0,0,0-.614-1.271,11.861,11.861,0,0,0-9.537-5.483,4.236,4.236,0,0,0-1.614.3c-.4.158-.524.139-.6.624a4.038,4.038,0,0,0-2.771.088,9.377,9.377,0,0,0-2.424,1.443,10.931,10.931,0,0,0-1.225,1.061c-2.02,2.092-2.485,5.317-1.9,8.165.19.926-.722,1.82-1.478,2.389a5.488,5.488,0,0,0-2,1.961,8.5,8.5,0,0,0-.233,2.7,4.617,4.617,0,0,1-2.946,3.88,1.421,1.421,0,0,0,1.371.482,3.374,3.374,0,0,0,1.429-.68,8.5,8.5,0,0,0,3.168-4.7,13.789,13.789,0,0,1,.128,3.082,8.609,8.609,0,0,1-.624,3.366,4.929,4.929,0,0,1-2.27,2.5,2.676,2.676,0,0,0,2.922-.582,6.106,6.106,0,0,0,1.681-2.8,13.962,13.962,0,0,0,.673-5.3,7.566,7.566,0,0,1,.949,5.158,7.886,7.886,0,0,1-2.675,4.643,15.364,15.364,0,0,0,7.032-1.771,3.98,3.98,0,0,0,1.442-1.111,4.612,4.612,0,0,0,.337-3.467c-.155-.931,1.009-2.277.342-2.946a1.1,1.1,0,0,0-.741-.318A6.554,6.554,0,0,1,145.5,55.5a7.578,7.578,0,0,1-1.262-3.886,7.071,7.071,0,1,1,13.824,2.1,14.189,14.189,0,0,0-.515,2.4,18.827,18.827,0,0,1-.574,2.788,7.246,7.246,0,0,1-2.938,4.462,4.586,4.586,0,0,0,1.747.37,10.734,10.734,0,0,0,5.863-.7A5.188,5.188,0,0,0,164.742,58.312Z" transform="translate(-53.248 -16.619)" fill="#2f2e41" stroke="#000" stroke-width="0.215"/>
      <path id="Trazado_297" data-name="Trazado 297" d="M105.289,54.169l-1.855,15.273.078-14.562Z" stroke="#000" stroke-width="0.215" opacity="0.2"/>
      <path id="Trazado_298" data-name="Trazado 298" d="M111.385,72.2l-.763,4.716,1.777.711Z" stroke="#000" stroke-width="0.215" opacity="0.2"/>
    </g>
  </g>
</svg>
