<svg xmlns="http://www.w3.org/2000/svg" xmlns:xlink="http://www.w3.org/1999/xlink" width="160" height="160" viewBox="0 0 160 160">
  <defs>
    <clipPath id="clip-path">
      <circle id="Elipse_48" data-name="Elipse 48" cx="80" cy="80" r="80" transform="translate(240 240)" fill="#bce0fd" stroke="#000" stroke-width="1"/>
    </clipPath>
  </defs>
  <g id="Enmascarar_grupo_5" data-name="Enmascarar grupo 5" transform="translate(-240 -240)" clip-path="url(#clip-path)">
    <g id="undraw_multitasking_hqg3" transform="translate(239.998 271.705)">
      <path id="Trazado_299" data-name="Trazado 299" d="M151.576,87.863a3.436,3.436,0,1,0-1.519-6.428l.607,1.663-1.249-1.2a3.423,3.423,0,0,0-1.11,2.371,3.369,3.369,0,0,0,.087.946A3.435,3.435,0,0,0,151.576,87.863Z" transform="translate(-15.352 -23.179)" fill="#57b894" stroke="#000" stroke-width="0.159"/>
      <path id="Trazado_300" data-name="Trazado 300" d="M161.617,106.221c-.728-1.349.1-3,1.048-4.2s2.108-2.454,2.083-3.987c-.035-2.2-2.373-3.5-4.241-4.671A20.685,20.685,0,0,1,156.7,90.3a5.58,5.58,0,0,1-1.17-1.567,6.362,6.362,0,0,1-.351-2.784q.122-4.714.466-9.419" transform="translate(-15.352 -23.179)" fill="none" stroke="#000" stroke-miterlimit="10" stroke-width="0.159"/>
      <path id="Trazado_301" data-name="Trazado 301" d="M151.576,87.386a3.436,3.436,0,1,0-1.519-6.428l.607,1.663-1.249-1.2a3.423,3.423,0,0,0-1.11,2.371,3.369,3.369,0,0,0,.087.946A3.435,3.435,0,0,0,151.576,87.386Z" transform="translate(-15.352 -23.179)" fill="none" stroke="#000" stroke-miterlimit="10" stroke-width="0.159"/>
      <path id="Trazado_302" data-name="Trazado 302" d="M152.092,76.991a3.432,3.432,0,0,1,1.715-2.814l.769,1.521-.023-1.842a3.435,3.435,0,1,1-2.461,3.135Z" transform="translate(-15.352 -23.179)" fill="#57b894" stroke="#000" stroke-width="0.159"/>
      <path id="Trazado_303" data-name="Trazado 303" d="M152.092,76.356a3.432,3.432,0,0,1,1.715-2.814l.769,1.521-.023-1.842a3.435,3.435,0,1,1-2.461,3.135Z" transform="translate(-15.352 -23.179)" fill="none" stroke="#000" stroke-miterlimit="10" stroke-width="0.159"/>
      <path id="Trazado_304" data-name="Trazado 304" d="M159.94,93.571a3.435,3.435,0,0,0,1.09-6.739l.018,1.415-.778-1.54h-.009a3.436,3.436,0,0,0-.321,6.864Z" transform="translate(-15.352 -23.179)" fill="#57b894" stroke="#000" stroke-width="0.159"/>
      <path id="Trazado_305" data-name="Trazado 305" d="M159.915,92.935A3.435,3.435,0,0,0,161,86.2l.018,1.415-.778-1.54h-.009a3.436,3.436,0,0,0-.321,6.864Z" transform="translate(-15.352 -23.179)" fill="none" stroke="#000" stroke-miterlimit="10" stroke-width="0.159"/>
      <path id="Trazado_306" data-name="Trazado 306" d="M158.218,100.081a3.434,3.434,0,1,0-.166-2.766l2.146,1.746-2.36-.547A3.4,3.4,0,0,0,158.218,100.081Z" transform="translate(-15.352 -23.179)" fill="#57b894" stroke="#000" stroke-width="0.159"/>
      <path id="Trazado_307" data-name="Trazado 307" d="M158.218,99.6a3.434,3.434,0,1,0-.166-2.766l2.146,1.746-2.36-.547a3.4,3.4,0,0,0,.381,1.567Z" transform="translate(-15.352 -23.179)" fill="none" stroke="#000" stroke-miterlimit="10" stroke-width="0.159"/>
      <path id="Trazado_308" data-name="Trazado 308" d="M132.012,47.449a7.51,7.51,0,0,1-.6,4.913,16.627,16.627,0,0,1-2.892,4.112,4.338,4.338,0,0,0-1.3,2.135c-.16,1.117.593,2.128,1.1,3.137a7.707,7.707,0,0,1,.79,2.829,3.031,3.031,0,0,1-.63,2.385,3.524,3.524,0,0,1-2.263.8,28.922,28.922,0,0,1-6.734-.163c.625-.831.39-1.347.331-2.386-.115-2.037-1.6-3.882-1.886-5.9-.229-1.606.834-3.08,1.839-4.354l4.607-5.839a17.823,17.823,0,0,0,2.072-3.074c.392-.793.465-2.281,1.451-2.545C129.752,43,131.651,46.027,132.012,47.449Z" transform="translate(-15.352 -23.179)" fill="#47465a" stroke="#000" stroke-width="0.159"/>
      <path id="Trazado_309" data-name="Trazado 309" d="M109.4,52.262s-3.178,9.376-4.768,10.012,9.535,12.078,9.535,12.078l8.105-3.973.318-7.628-3.178-.159s-.477-3.178,1.112-4.768S109.4,52.262,109.4,52.262Z" transform="translate(-15.352 -23.179)" fill="#fbbebe" stroke="#000" stroke-width="0.159"/>
      <path id="Trazado_310" data-name="Trazado 310" d="M109.4,52.262s-3.178,9.376-4.768,10.012,9.535,12.078,9.535,12.078l8.105-3.973.318-7.628-3.178-.159s-.477-3.178,1.112-4.768S109.4,52.262,109.4,52.262Z" transform="translate(-15.352 -23.179)" stroke="#000" stroke-width="0.159" opacity="0.1"/>
      <path id="Trazado_311" data-name="Trazado 311" d="M113.057,68.154s-6.834-4.609-7.151-8.423c0,0-5.085,3.337-6.675,3.178s-5.88.795-5.88,1.43,3.973,18.594,3.973,18.594-2.861,7.628-1.43,10.012,2.225,13.508,2.225,13.508h33.056s-4.45-7.787-2.066-13.349,3.337-28.924,3.337-28.924a5.26,5.26,0,0,0-3.5-.954c-1.748.318-3.814-.954-5.085-1.112a18.088,18.088,0,0,0-4.153.492Z" transform="translate(-15.352 -23.179)" fill="#93c021" stroke="#000" stroke-width="0.159"/>
      <path id="Trazado_312" data-name="Trazado 312" d="M175.354,106.284v6.993a4.678,4.678,0,0,1-4.62,4.677L23.6,119.77a2.687,2.687,0,0,1-2.72-2.686v-7.73a2.663,2.663,0,0,1,2.581-2.662l147.614-4.556a4.149,4.149,0,0,1,4.278,4.147Z" transform="translate(-15.352 -23.179)" fill="#47465a" stroke="#000" stroke-width="0.159"/>
      <path id="Trazado_313" data-name="Trazado 313" d="M175.354,111.381v1.9a4.678,4.678,0,0,1-4.62,4.677L23.6,119.77a2.687,2.687,0,0,1-2.72-2.686v-.249Z" transform="translate(-15.352 -23.179)" stroke="#000" stroke-width="0.159" opacity="0.1"/>
      <path id="Trazado_314" data-name="Trazado 314" d="M131.078,83.275l-18.616-2.415-33.1,1.208,11.989,3.751Z" fill="#f2f2f2" stroke="#000" stroke-width="0.159"/>
      <path id="Trazado_315" data-name="Trazado 315" d="M81.654,82.162v1.907L63.537,88.2l-1.77-.408-.3-.068L48.439,80.732Z" fill="#9493b6" stroke="#000" stroke-width="0.159"/>
      <path id="Trazado_316" data-name="Trazado 316" d="M81.654,82.162v1.907L63.537,88.2l-1.77-.408-.3-1.975Z" stroke="#000" stroke-width="0.159" opacity="0.1"/>
      <path id="Trazado_317" data-name="Trazado 317" d="M76.187,108.361c.318-.159,6.993-1.43,6.993-1.43L71.1,105.819Z" transform="translate(-15.352 -23.179)" fill="#47465a" stroke="#000" stroke-width="0.159"/>
      <circle id="Elipse_274" data-name="Elipse 274" cx="10.33" cy="10.33" r="10.33" transform="translate(92.301 16.528)" fill="#fbbebe" stroke="#000" stroke-width="0.159"/>
      <path id="Trazado_318" data-name="Trazado 318" d="M87.947,96.76S78.73,100.733,76.5,99.621s-8.9-3.973-10.966,1.907c-1.666,4.742,8.06,5.04,11.888,4.977a3.2,3.2,0,0,0,2.415-1.163h0l13.27-4.529S90.172,95.807,87.947,96.76Z" transform="translate(-15.352 -23.179)" fill="#fbbebe" stroke="#000" stroke-width="0.159"/>
      <path id="Trazado_319" data-name="Trazado 319" d="M114.01,89.45l1.112.954-10.33,14.621s-1.589.159-1.112-.636Z" transform="translate(-15.352 -23.179)" fill="#47465a" stroke="#000" stroke-width="0.159"/>
      <path id="Trazado_320" data-name="Trazado 320" d="M99.294,67.224l1.112-1.43-.477-.318-1.112,1.271Z" fill="#47465a" stroke="#000" stroke-width="0.159"/>
      <path id="Trazado_321" data-name="Trazado 321" d="M95.814,63.307s-5.4.954-5.244,5.085a23.667,23.667,0,0,1-2.463,11.045c-1.271,2.225-.318,3.973,0,6.993s-1.589,6.2-.636,7.787-10.33,2.7-10.33,4.291,7.151,4.609,5.88,6.675c-.915,1.486,5.533-1.017,9.222-2.538a6.44,6.44,0,0,0,3.866-4.524,2.418,2.418,0,0,0,.022-1.281c-.477-1.271,5.165-2.94,5.324-6.118s-.795-6.357-1.589-9.535S95.814,63.307,95.814,63.307Z" transform="translate(-15.352 -23.179)" fill="#93c021" stroke="#000" stroke-width="0.159"/>
      <path id="Trazado_322" data-name="Trazado 322" d="M17.065,79.94l46.6.441a1.694,1.694,0,0,1,1.525.991l12.559,27.517a1.695,1.695,0,0,1-1.6,2.4l-46.766-1.618a1.694,1.694,0,0,1-1.475-.972l-12.4-26.341a1.694,1.694,0,0,1,1.549-2.416Z" transform="translate(-15.352 -23.179)" fill="#7a799c" stroke="#000" stroke-width="0.159"/>
      <path id="Trazado_323" data-name="Trazado 323" d="M127.042,96.76s-9.217,3.973-11.442,2.861-8.9-3.973-10.966,1.907c-1.666,4.742,8.06,5.04,11.887,4.977a3.2,3.2,0,0,0,2.415-1.163h0l13.508-1.43S129.267,95.807,127.042,96.76Z" transform="translate(-15.352 -23.179)" fill="#fbbebe" stroke="#000" stroke-width="0.159"/>
      <path id="Trazado_324" data-name="Trazado 324" d="M132.525,66.645s2.3-3.1,3.417-.238.954,13.985.954,13.985,1.907,5.562,1.271,9.217.636,4.132.636,4.132a2.724,2.724,0,0,1-.636,2.384c-.954.795-1.589,4.291-1.271,4.768s-.477,3.5-1.112,3.5a16.647,16.647,0,0,1-1.987-.238s-3.258-5.96-10.092-6.436c0,0,1.112-1.589.477-4.768S132.525,66.645,132.525,66.645Z" transform="translate(-15.352 -23.179)" stroke="#000" stroke-width="0.159" opacity="0.1"/>
      <path id="Trazado_325" data-name="Trazado 325" d="M132.127,64.34a2.83,2.83,0,0,1,3.735,1.828c1.112,2.861,2.145,14.223,2.145,14.223s1.907,5.562,1.271,9.217.636,4.132.636,4.132a2.724,2.724,0,0,1-.636,2.384c-.954.795-1.589,4.291-1.271,4.768s-.477,3.5-1.112,3.5-6.516.954-6.516.954,1.271-7.151-5.562-7.628c0,0,1.112-1.589.477-4.768S132.127,64.34,132.127,64.34Z" transform="translate(-15.352 -23.179)" fill="#93c021" stroke="#000" stroke-width="0.159"/>
      <path id="Trazado_326" data-name="Trazado 326" d="M121.444,35.46a12.067,12.067,0,0,0-10.721-1.036,18.945,18.945,0,0,0-5.069,3.22,12.613,12.613,0,0,0-3.211,3.578c-1.155,2.155-1.152,4.721-1.12,7.166a51.572,51.572,0,0,0,.345,6.373c.4,2.893,1.289,5.757,1.085,8.67s-1.917,6.021-4.778,6.6a38.352,38.352,0,0,0,7.984-.23,8.128,8.128,0,0,0,4.638-1.765,8.305,8.305,0,0,0,1.832-3.163,9.868,9.868,0,0,0,.828-3.588c-.032-2.57-1.817-4.725-2.981-7.016a4.478,4.478,0,0,1-.6-2.056,1.886,1.886,0,0,1,1.058-1.745c.827-.329,1.785.162,2.645-.068,1.382-.369,1.74-2.288,3.009-2.948a2.7,2.7,0,0,1,2.926.583,7,7,0,0,0,1.065.934,3.768,3.768,0,0,0,1.871.345c1.2.013,5.286-1.864,6.149-2.695.842,4.331,7.1.562,3.51-5.828a14.466,14.466,0,0,0-5.118-5.573,8.131,8.131,0,0,0-7.342-.609" transform="translate(-15.352 -23.179)" fill="#47465a" stroke="#000" stroke-width="0.159"/>
      <ellipse id="Elipse_275" data-name="Elipse 275" cx="1.43" cy="2.543" rx="1.43" ry="2.543" transform="translate(93.97 26.778)" fill="#fbbebe" stroke="#000" stroke-width="0.159"/>
      <path id="Trazado_327" data-name="Trazado 327" d="M124.817,62.357s8.82,1.268,9.3,1.9-.477,4.45-.477,4.45l-6.357,1.112-4.892-1.055Z" transform="translate(-15.352 -23.179)" fill="#93c021" stroke="#000" stroke-width="0.159"/>
      <path id="Trazado_328" data-name="Trazado 328" d="M97.781,68.58c-1.328-.229-2.624.973-3.312,2.558a15,15,0,0,0-.942,5.33,20.4,20.4,0,0,0,.39,5.45c.858,3.58,3.16,6.112,4.492,9.4a18.44,18.44,0,0,1,1.21,8.22" transform="translate(-15.352 -23.179)" stroke="#000" stroke-width="0.159" opacity="0.1"/>
      <path id="Trazado_329" data-name="Trazado 329" d="M98.735,68.58c-1.328-.229-2.624.973-3.312,2.558a15,15,0,0,0-.942,5.33,20.4,20.4,0,0,0,.39,5.45c.858,3.58,3.16,6.112,4.492,9.4a18.44,18.44,0,0,1,1.21,8.22" transform="translate(-15.352 -23.179)" fill="#93c021" stroke="#000" stroke-width="0.159"/>
      <path id="Trazado_330" data-name="Trazado 330" d="M134.463,80.91l15.374,6.149,9.609-1.73-.838-6.878-.123-1-16.142-5-1.153,1.153Z" fill="#93c021" stroke="#000" stroke-width="0.159"/>
      <path id="Trazado_331" data-name="Trazado 331" d="M143.3,73.679v6.655l16.143,5-.838-6.878Z" stroke="#000" stroke-width="0.159" opacity="0.1"/>
      <path id="Trazado_332" data-name="Trazado 332" d="M143.8,105.527l1.088.4,12.975,4.805,1.008.373a.212.212,0,0,0,.193-.023l1.188-.8L172.609,102l1.168-.783a.215.215,0,0,0-.057-.384l-1.862-.57-13.089-4.01-1.143-.351a.214.214,0,0,0-.183.027l-.9.607-11.662,7.853-1.13.761a.214.214,0,0,0,.044.379Z" transform="translate(-15.352 -23.179)" fill="#7a799c" stroke="#000" stroke-width="0.159"/>
      <path id="Trazado_333" data-name="Trazado 333" d="M170.567,101.928,158.985,109.8a.426.426,0,0,1-.386.048l-12.3-4.489a.43.43,0,0,1-.087-.764l11.21-7.316a.426.426,0,0,1,.359-.05l12.667,3.928a.43.43,0,0,1,.114.766Z" transform="translate(-15.352 -23.179)" fill="#f2f2f2" stroke="#000" stroke-width="0.159"/>
      <path id="Trazado_334" data-name="Trazado 334" d="M171.858,100.259V102h.751l1.168-.783a.215.215,0,0,0-.057-.384Z" transform="translate(-15.352 -23.179)" fill="#93c021" stroke="#000" stroke-width="0.159"/>
      <path id="Trazado_335" data-name="Trazado 335" d="M157.858,110.191v.544l1.008.373a.212.212,0,0,0,.193-.023l1.188-.8v-.1Z" transform="translate(-15.352 -23.179)" fill="#93c021" stroke="#000" stroke-width="0.159"/>
      <path id="Trazado_336" data-name="Trazado 336" d="M143.8,105.527l1.088.4v-1.543h0l-1.13.761a.214.214,0,0,0,.044.379Z" transform="translate(-15.352 -23.179)" fill="#93c021" stroke="#000" stroke-width="0.159"/>
      <path id="Trazado_337" data-name="Trazado 337" d="M156.543,96.533h2.226v-.283l-1.143-.351a.214.214,0,0,0-.183.027Z" transform="translate(-15.352 -23.179)" fill="#93c021" stroke="#000" stroke-width="0.159"/>
      <circle id="Elipse_276" data-name="Elipse 276" cx="0.159" cy="0.159" r="0.159" transform="translate(136.164 76.918)" fill="#f2f2f2" stroke="#000" stroke-width="0.159"/>
      <rect id="Rect치ngulo_791" data-name="Rect치ngulo 791" width="63.251" height="32.102" transform="translate(5.51 4.132)" fill="#f2f2f2" stroke="#000" stroke-width="0.159"/>
      <path id="Trazado_338" data-name="Trazado 338" d="M16.612,33.294,30.937,9.376,45.8,33.294" fill="#93c021" stroke="#000" stroke-width="0.159"/>
      <path id="Trazado_339" data-name="Trazado 339" d="M38.327,21.057l2.861-7.469L57.4,33.294H38.247Z" fill="#93c021" stroke="#000" stroke-width="0.159"/>
      <path id="Trazado_340" data-name="Trazado 340" d="M50.667,41.269a3.973,3.973,0,1,0-4.154-6.774" transform="translate(-15.352 -23.179)" fill="#93c021" stroke="#000" stroke-width="0.159"/>
      <rect id="Rect치ngulo_792" data-name="Rect치ngulo 792" width="63.251" height="32.102" transform="translate(9.244 0.079)" fill="none" stroke="#000" stroke-miterlimit="10" stroke-width="0.159"/>
      <path id="Trazado_341" data-name="Trazado 341" d="M17.406,32.182,31.732,8.264,46.591,32.182" fill="none" stroke="#000" stroke-miterlimit="10" stroke-width="0.159"/>
      <path id="Trazado_342" data-name="Trazado 342" d="M38.8,19.627l2.861-7.469,16.21,20.024" fill="none" stroke="#000" stroke-miterlimit="10" stroke-width="0.159"/>
      <path id="Trazado_343" data-name="Trazado 343" d="M51.78,39.044a3.973,3.973,0,0,0-4.154-6.774" transform="translate(-15.352 -23.179)" fill="none" stroke="#000" stroke-miterlimit="10" stroke-width="0.159"/>
    </g>
  </g>
</svg>
